<mxfile host="app.diagrams.net" agent="Mozilla/5.0 (Windows NT 10.0; Win64; x64) AppleWebKit/537.36 (KHTML, like Gecko) Chrome/135.0.0.0 Safari/537.36" version="26.1.0">
  <diagram name="第 1 页" id="fM7v8zDCmkdMlTbwOrmR">
    <mxGraphModel dx="1421" dy="1578" grid="1" gridSize="10" guides="1" tooltips="1" connect="1" arrows="1" fold="1" page="1" pageScale="1" pageWidth="827" pageHeight="1169" math="0" shadow="0">
      <root>
        <mxCell id="0" />
        <mxCell id="1" parent="0" />
        <mxCell id="OEyQ0tjbLL6TsNNDfpWR-4" value="安卓APP" style="rounded=1;whiteSpace=wrap;html=1;" vertex="1" parent="1">
          <mxGeometry x="-50" y="480" width="120" height="60" as="geometry" />
        </mxCell>
        <mxCell id="OEyQ0tjbLL6TsNNDfpWR-7" value="" style="group" vertex="1" connectable="0" parent="1">
          <mxGeometry x="163" y="470" width="260" height="110" as="geometry" />
        </mxCell>
        <mxCell id="OEyQ0tjbLL6TsNNDfpWR-1" value="" style="rounded=0;whiteSpace=wrap;html=1;" vertex="1" parent="OEyQ0tjbLL6TsNNDfpWR-7">
          <mxGeometry x="-11" width="271" height="80" as="geometry" />
        </mxCell>
        <mxCell id="OEyQ0tjbLL6TsNNDfpWR-2" value="单片机硬件" style="rounded=0;whiteSpace=wrap;html=1;" vertex="1" parent="OEyQ0tjbLL6TsNNDfpWR-7">
          <mxGeometry x="20" y="10" width="80" height="60" as="geometry" />
        </mxCell>
        <mxCell id="OEyQ0tjbLL6TsNNDfpWR-3" value="单片机软件" style="rounded=0;whiteSpace=wrap;html=1;" vertex="1" parent="OEyQ0tjbLL6TsNNDfpWR-7">
          <mxGeometry x="160" y="10" width="80" height="60" as="geometry" />
        </mxCell>
        <mxCell id="OEyQ0tjbLL6TsNNDfpWR-9" value="有线" style="text;strokeColor=none;align=center;fillColor=none;html=1;verticalAlign=middle;whiteSpace=wrap;rounded=0;" vertex="1" parent="1">
          <mxGeometry x="90" y="520" width="60" height="30" as="geometry" />
        </mxCell>
        <mxCell id="OEyQ0tjbLL6TsNNDfpWR-10" value="蓝牙" style="text;strokeColor=none;align=center;fillColor=none;html=1;verticalAlign=middle;whiteSpace=wrap;rounded=0;" vertex="1" parent="1">
          <mxGeometry x="90" y="480" width="60" height="30" as="geometry" />
        </mxCell>
        <mxCell id="OEyQ0tjbLL6TsNNDfpWR-13" value="" style="endArrow=classic;startArrow=classic;html=1;rounded=0;entryX=0;entryY=0.5;entryDx=0;entryDy=0;exitX=1;exitY=0.5;exitDx=0;exitDy=0;" edge="1" parent="1" source="OEyQ0tjbLL6TsNNDfpWR-4" target="OEyQ0tjbLL6TsNNDfpWR-1">
          <mxGeometry width="50" height="50" relative="1" as="geometry">
            <mxPoint x="60" y="550" as="sourcePoint" />
            <mxPoint x="110" y="500" as="targetPoint" />
          </mxGeometry>
        </mxCell>
        <mxCell id="OEyQ0tjbLL6TsNNDfpWR-26" style="edgeStyle=orthogonalEdgeStyle;rounded=0;orthogonalLoop=1;jettySize=auto;html=1;exitX=0.5;exitY=0;exitDx=0;exitDy=0;entryX=0.5;entryY=1;entryDx=0;entryDy=0;startArrow=classic;startFill=1;" edge="1" parent="1" source="OEyQ0tjbLL6TsNNDfpWR-14" target="OEyQ0tjbLL6TsNNDfpWR-17">
          <mxGeometry relative="1" as="geometry" />
        </mxCell>
        <mxCell id="OEyQ0tjbLL6TsNNDfpWR-14" value="微信小程序" style="rounded=1;whiteSpace=wrap;html=1;" vertex="1" parent="1">
          <mxGeometry x="228" y="398" width="120" height="40" as="geometry" />
        </mxCell>
        <mxCell id="OEyQ0tjbLL6TsNNDfpWR-15" value="" style="endArrow=none;startArrow=classic;html=1;rounded=0;entryX=0.5;entryY=1;entryDx=0;entryDy=0;exitX=0.5;exitY=0;exitDx=0;exitDy=0;startFill=1;" edge="1" parent="1" source="OEyQ0tjbLL6TsNNDfpWR-1" target="OEyQ0tjbLL6TsNNDfpWR-14">
          <mxGeometry width="50" height="50" relative="1" as="geometry">
            <mxPoint x="250" y="420" as="sourcePoint" />
            <mxPoint x="300" y="370" as="targetPoint" />
          </mxGeometry>
        </mxCell>
        <mxCell id="OEyQ0tjbLL6TsNNDfpWR-24" style="rounded=0;orthogonalLoop=1;jettySize=auto;html=1;exitX=1;exitY=0.5;exitDx=0;exitDy=0;entryX=0;entryY=0.5;entryDx=0;entryDy=0;startArrow=classic;startFill=1;" edge="1" parent="1" source="OEyQ0tjbLL6TsNNDfpWR-17" target="OEyQ0tjbLL6TsNNDfpWR-20">
          <mxGeometry relative="1" as="geometry" />
        </mxCell>
        <mxCell id="OEyQ0tjbLL6TsNNDfpWR-25" style="rounded=0;orthogonalLoop=1;jettySize=auto;html=1;exitX=1;exitY=0.5;exitDx=0;exitDy=0;entryX=0;entryY=0.5;entryDx=0;entryDy=0;startArrow=classic;startFill=1;" edge="1" parent="1" source="OEyQ0tjbLL6TsNNDfpWR-17" target="OEyQ0tjbLL6TsNNDfpWR-22">
          <mxGeometry relative="1" as="geometry" />
        </mxCell>
        <mxCell id="OEyQ0tjbLL6TsNNDfpWR-20" value="数据存储空间" style="rounded=1;whiteSpace=wrap;html=1;" vertex="1" parent="1">
          <mxGeometry x="420" y="259" width="100" height="30" as="geometry" />
        </mxCell>
        <mxCell id="OEyQ0tjbLL6TsNNDfpWR-22" value="数据库" style="rounded=1;whiteSpace=wrap;html=1;" vertex="1" parent="1">
          <mxGeometry x="420" y="329" width="100" height="30" as="geometry" />
        </mxCell>
        <mxCell id="OEyQ0tjbLL6TsNNDfpWR-27" value="" style="group" vertex="1" connectable="0" parent="1">
          <mxGeometry x="196" y="246" width="182" height="113" as="geometry" />
        </mxCell>
        <mxCell id="OEyQ0tjbLL6TsNNDfpWR-17" value="" style="rounded=0;whiteSpace=wrap;html=1;" vertex="1" parent="OEyQ0tjbLL6TsNNDfpWR-27">
          <mxGeometry x="2" y="8" width="180" height="105" as="geometry" />
        </mxCell>
        <mxCell id="OEyQ0tjbLL6TsNNDfpWR-16" value="用户管理" style="rounded=1;whiteSpace=wrap;html=1;" vertex="1" parent="OEyQ0tjbLL6TsNNDfpWR-27">
          <mxGeometry x="11" y="28" width="70" height="30" as="geometry" />
        </mxCell>
        <mxCell id="OEyQ0tjbLL6TsNNDfpWR-18" value="设备管理" style="rounded=1;whiteSpace=wrap;html=1;" vertex="1" parent="OEyQ0tjbLL6TsNNDfpWR-27">
          <mxGeometry x="95" y="28" width="70" height="30" as="geometry" />
        </mxCell>
        <mxCell id="OEyQ0tjbLL6TsNNDfpWR-19" value="AI模型推理" style="rounded=1;whiteSpace=wrap;html=1;" vertex="1" parent="OEyQ0tjbLL6TsNNDfpWR-27">
          <mxGeometry x="12" y="78" width="152" height="30" as="geometry" />
        </mxCell>
        <mxCell id="OEyQ0tjbLL6TsNNDfpWR-21" value="云服务器" style="text;strokeColor=none;align=center;fillColor=none;html=1;verticalAlign=middle;whiteSpace=wrap;rounded=0;" vertex="1" parent="OEyQ0tjbLL6TsNNDfpWR-27">
          <mxGeometry width="60" height="30" as="geometry" />
        </mxCell>
      </root>
    </mxGraphModel>
  </diagram>
</mxfile>
